<svg id="_x31__px" enable-background="new 0 0 24 24" height="512" viewBox="0 0 24 24" width="512" xmlns="http://www.w3.org/2000/svg"><g id="XMLID_1_"><path d="m20.5 7c.28 0 .5.22.5.5s-.22.5-.5.5h-.5v-1z"/><path d="m20.5 14c.28 0 .5.22.5.5s-.22.5-.5.5h-.5v-1z"/><path d="m20.5 8c.28 0 .5-.22.5-.5v7c0-.28-.22-.5-.5-.5h-.5v-6z"/><path d="m4 14h16v1h-16z"/><path d="m4 7h16v1h-16z"/><path d="m20.5 15c.28 0 .5-.22.5-.5v6c0 .83-.67 1.5-1.5 1.5h-2.5v-.5c0-.28-.22-.5-.5-.5h3c.28 0 .5-.22.5-.5v-5.5z"/><path d="m17 22v1.5c0 .28-.22.5-.5.5s-.5-.22-.5-.5v-1.5z"/><path d="m17 21.5v.5h-1v-.5c0-.28.22-.5.5-.5s.5.22.5.5z"/><path d="m7.5 21h9c-.28 0-.5.22-.5.5v.5h-8v-.5c0-.28-.22-.5-.5-.5z"/><path d="m10 3.5v.5h4v-.5c0-.28.22-.5.5-.5s.5.22.5.5v1c0 .28-.22.5-.5.5h-5c-.28 0-.5-.22-.5-.5v-1c0-.28.22-.5.5-.5s.5.22.5.5z"/><path d="m10 10.5v.5h4v-.5c0-.28.22-.5.5-.5s.5.22.5.5v1c0 .28-.22.5-.5.5h-5c-.28 0-.5-.22-.5-.5v-1c0-.28.22-.5.5-.5s.5.22.5.5z"/><path d="m10 17.5v.5h4v-.5c0-.28.22-.5.5-.5s.5.22.5.5v1c0 .28-.22.5-.5.5h-5c-.28 0-.5-.22-.5-.5v-1c0-.28.22-.5.5-.5s.5.22.5.5z"/><path d="m8 22v1.5c0 .28-.22.5-.5.5s-.5-.22-.5-.5v-1.5z"/><path d="m8 21.5v.5h-1v-.5c0-.28.22-.5.5-.5s.5.22.5.5z"/><path d="m4 14v1h-.5c-.28 0-.5-.22-.5-.5s.22-.5.5-.5z"/><path d="m4 8v6h-.5c-.28 0-.5.22-.5.5v-7c0 .28.22.5.5.5z"/><path d="m4 7v1h-.5c-.28 0-.5-.22-.5-.5s.22-.5.5-.5z"/><path d="m3 1.5c0-.83.67-1.5 1.5-1.5h15c.83 0 1.5.67 1.5 1.5v6c0-.28-.22-.5-.5-.5h-.5v-5.5c0-.28-.22-.5-.5-.5h-15c-.28 0-.5.22-.5.5v5.5h-.5c-.28 0-.5.22-.5.5z"/><path d="m4.5 22c-.83 0-1.5-.67-1.5-1.5v-6c0 .28.22.5.5.5h.5v5.5c0 .28.22.5.5.5h3c-.28 0-.5.22-.5.5v.5z"/></g></svg>