<svg id="_x31__px" enable-background="new 0 0 24 24" height="512" viewBox="0 0 24 24" width="512" xmlns="http://www.w3.org/2000/svg"><path d="m19.5 24h-15c-1.379 0-2.5-1.122-2.5-2.5v-19c0-1.378 1.121-2.5 2.5-2.5h15c1.379 0 2.5 1.122 2.5 2.5v19c0 1.378-1.121 2.5-2.5 2.5zm-15-23c-.827 0-1.5.673-1.5 1.5v19c0 .827.673 1.5 1.5 1.5h15c.827 0 1.5-.673 1.5-1.5v-19c0-.827-.673-1.5-1.5-1.5z"/><path d="m17.5 8h-11c-.827 0-1.5-.673-1.5-1.5v-2c0-.827.673-1.5 1.5-1.5h11c.827 0 1.5.673 1.5 1.5v2c0 .827-.673 1.5-1.5 1.5zm-11-4c-.275 0-.5.224-.5.5v2c0 .276.225.5.5.5h11c.275 0 .5-.224.5-.5v-2c0-.276-.225-.5-.5-.5z"/><path d="m8.5 15h-3c-.276 0-.5-.224-.5-.5v-4c0-.276.224-.5.5-.5h3c.276 0 .5.224.5.5v4c0 .276-.224.5-.5.5zm-2.5-1h2v-3h-2z"/><path d="m8.5 21h-3c-.276 0-.5-.224-.5-.5v-4c0-.276.224-.5.5-.5h3c.276 0 .5.224.5.5v4c0 .276-.224.5-.5.5zm-2.5-1h2v-3h-2z"/><path d="m13.5 15h-3c-.276 0-.5-.224-.5-.5v-4c0-.276.224-.5.5-.5h3c.276 0 .5.224.5.5v4c0 .276-.224.5-.5.5zm-2.5-1h2v-3h-2z"/><path d="m13.5 21h-3c-.276 0-.5-.224-.5-.5v-4c0-.276.224-.5.5-.5h3c.276 0 .5.224.5.5v4c0 .276-.224.5-.5.5zm-2.5-1h2v-3h-2z"/><path d="m18.5 21h-3c-.276 0-.5-.224-.5-.5v-10c0-.276.224-.5.5-.5h3c.276 0 .5.224.5.5v10c0 .276-.224.5-.5.5zm-2.5-1h2v-9h-2z"/></svg>