<svg id="_x31__px" enable-background="new 0 0 24 24" height="512" viewBox="0 0 24 24" width="512" xmlns="http://www.w3.org/2000/svg"><path d="m10 11c-5.607 0-10-1.977-10-4.5s4.393-4.5 10-4.5 10 1.977 10 4.5-4.393 4.5-10 4.5zm0-8c-5.304 0-9 1.845-9 3.5s3.696 3.5 9 3.5 9-1.845 9-3.5-3.696-3.5-9-3.5z"/><path d="m10 22c-5.607 0-10-1.977-10-4.5 0-.276.224-.5.5-.5s.5.224.5.5c0 1.655 3.696 3.5 9 3.5.276 0 .5.224.5.5s-.224.5-.5.5z"/><path d="m.5 18c-.276 0-.5-.224-.5-.5v-11c0-.276.224-.5.5-.5s.5.224.5.5v11c0 .276-.224.5-.5.5z"/><path d="m19.5 11c-.276 0-.5-.224-.5-.5v-4c0-.276.224-.5.5-.5s.5.224.5.5v4c0 .276-.224.5-.5.5z"/><path d="m23.5 22h-13.5c-.276 0-.5-.224-.5-.5s.224-.5.5-.5h12.215l-1.053-.965c-.103-.095-.162-.228-.162-.368s.059-.274.162-.369l1.598-1.464-1.598-1.465c-.103-.095-.162-.229-.162-.369s.059-.274.162-.369l1.598-1.465-1.598-1.464c-.103-.095-.162-.228-.162-.369s.059-.274.162-.369l1.053-.964h-12.215c-.276 0-.5-.224-.5-.5s.224-.5.5-.5h13.5c.206 0 .392.126.466.319.075.192.024.41-.128.55l-1.598 1.465 1.598 1.464c.103.095.162.228.162.369s-.059.274-.162.369l-1.598 1.464 1.598 1.465c.103.095.162.228.162.368s-.059.274-.162.369l-1.598 1.464 1.598 1.465c.152.14.203.358.128.55-.074.193-.26.319-.466.319z"/><path d="m10 8.5c-2.408 0-5-.626-5-2s2.592-2 5-2 5 .626 5 2-2.592 2-5 2zm0-3c-2.625 0-4 .743-4 1s1.375 1 4 1 4-.743 4-1-1.375-1-4-1z"/></svg>