<svg id="_x31__px" enable-background="new 0 0 24 24" height="512" viewBox="0 0 24 24" width="512" xmlns="http://www.w3.org/2000/svg"><path d="m21.5 17h-16c-.827 0-1.5-.673-1.5-1.5v-5c0-.827.673-1.5 1.5-1.5h16c.827 0 1.5.673 1.5 1.5v5c0 .827-.673 1.5-1.5 1.5zm-16-7c-.275 0-.5.224-.5.5v5c0 .276.225.5.5.5h16c.275 0 .5-.224.5-.5v-5c0-.276-.225-.5-.5-.5z"/><path d="m16.5 13.5h-9c-.276 0-.5-.224-.5-.5s.224-.5.5-.5h9c.276 0 .5.224.5.5s-.224.5-.5.5z"/><path d="m19.5 14.5c-.276 0-.5-.224-.5-.5v-2c0-.276.224-.5.5-.5s.5.224.5.5v2c0 .276-.224.5-.5.5z"/><path d="m19.5 10h-16c-.827 0-1.5-.673-1.5-1.5v-5c0-.827.673-1.5 1.5-1.5h16c.827 0 1.5.673 1.5 1.5v5c0 .827-.673 1.5-1.5 1.5zm-16-7c-.275 0-.5.224-.5.5v5c0 .276.225.5.5.5h16c.275 0 .5-.224.5-.5v-5c0-.276-.225-.5-.5-.5z"/><path d="m14.5 6.5h-9c-.276 0-.5-.224-.5-.5s.224-.5.5-.5h9c.276 0 .5.224.5.5s-.224.5-.5.5z"/><path d="m17.5 7.5c-.276 0-.5-.224-.5-.5v-2c0-.276.224-.5.5-.5s.5.224.5.5v2c0 .276-.224.5-.5.5z"/><path d="m22.5 24h-21c-.827 0-1.5-.673-1.5-1.5v-5c0-.827.673-1.5 1.5-1.5h21c.827 0 1.5.673 1.5 1.5v5c0 .827-.673 1.5-1.5 1.5zm-21-7c-.275 0-.5.224-.5.5v5c0 .276.225.5.5.5h21c.275 0 .5-.224.5-.5v-5c0-.276-.225-.5-.5-.5z"/><path d="m17.5 20.5h-14c-.276 0-.5-.224-.5-.5s.224-.5.5-.5h14c.276 0 .5.224.5.5s-.224.5-.5.5z"/><path d="m20.5 21.5c-.276 0-.5-.224-.5-.5v-2c0-.276.224-.5.5-.5s.5.224.5.5v2c0 .276-.224.5-.5.5z"/></svg>